<svg width="142" height="14" viewBox="0 0 142 14" fill="none" xmlns="http://www.w3.org/2000/svg">
<path d="M5.598 13.18C4.614 13.18 3.672 13.042 2.772 12.766C1.872 12.478 1.158 12.112 0.63 11.668L1.44 9.85C1.944 10.246 2.568 10.576 3.312 10.84C4.056 11.104 4.818 11.236 5.598 11.236C6.258 11.236 6.792 11.164 7.2 11.02C7.608 10.876 7.908 10.684 8.1 10.444C8.292 10.192 8.388 9.91 8.388 9.598C8.388 9.214 8.25 8.908 7.974 8.68C7.698 8.44 7.338 8.254 6.894 8.122C6.462 7.978 5.976 7.846 5.436 7.726C4.908 7.606 4.374 7.468 3.834 7.312C3.306 7.144 2.82 6.934 2.376 6.682C1.944 6.418 1.59 6.07 1.314 5.638C1.038 5.206 0.9 4.654 0.9 3.982C0.9 3.298 1.08 2.674 1.44 2.11C1.812 1.534 2.37 1.078 3.114 0.741999C3.87 0.393999 4.824 0.219999 5.976 0.219999C6.732 0.219999 7.482 0.316 8.226 0.508C8.97 0.7 9.618 0.976 10.17 1.336L9.432 3.154C8.868 2.818 8.286 2.572 7.686 2.416C7.086 2.248 6.51 2.164 5.958 2.164C5.31 2.164 4.782 2.242 4.374 2.398C3.978 2.554 3.684 2.758 3.492 3.01C3.312 3.262 3.222 3.55 3.222 3.874C3.222 4.258 3.354 4.57 3.618 4.81C3.894 5.038 4.248 5.218 4.68 5.35C5.124 5.482 5.616 5.614 6.156 5.746C6.696 5.866 7.23 6.004 7.758 6.16C8.298 6.316 8.784 6.52 9.216 6.772C9.66 7.024 10.014 7.366 10.278 7.798C10.554 8.23 10.692 8.776 10.692 9.436C10.692 10.108 10.506 10.732 10.134 11.308C9.774 11.872 9.216 12.328 8.46 12.676C7.704 13.012 6.75 13.18 5.598 13.18ZM21.8683 0.399999H24.2083V13H21.8683V0.399999ZM15.3523 13H13.0123V0.399999H15.3523V13ZM22.0483 7.6H15.1543V5.602H22.0483V7.6ZM33.0026 13.18C31.2746 13.18 29.9186 12.694 28.9346 11.722C27.9626 10.75 27.4766 9.346 27.4766 7.51V0.399999H29.8166V7.42C29.8166 8.716 30.0926 9.658 30.6446 10.246C31.2086 10.834 32.0006 11.128 33.0206 11.128C34.0406 11.128 34.8266 10.834 35.3786 10.246C35.9306 9.658 36.2066 8.716 36.2066 7.42V0.399999H38.5106V7.51C38.5106 9.346 38.0186 10.75 37.0346 11.722C36.0626 12.694 34.7186 13.18 33.0026 13.18ZM44.1152 13V2.38H39.9392V0.399999H50.6312V2.38H46.4552V13H44.1152ZM55.1191 13V2.38H50.9431V0.399999H61.6351V2.38H57.4591V13H55.1191ZM63.3912 13V0.399999H65.7312V11.02H72.3192V13H63.3912ZM76.3266 5.638H82.5906V7.564H76.3266V5.638ZM76.5066 11.038H83.6166V13H74.1666V0.399999H83.3646V2.362H76.5066V11.038ZM90.1312 13.18C89.1472 13.18 88.2052 13.042 87.3052 12.766C86.4052 12.478 85.6912 12.112 85.1632 11.668L85.9732 9.85C86.4772 10.246 87.1012 10.576 87.8452 10.84C88.5892 11.104 89.3512 11.236 90.1312 11.236C90.7912 11.236 91.3252 11.164 91.7332 11.02C92.1412 10.876 92.4412 10.684 92.6332 10.444C92.8252 10.192 92.9212 9.91 92.9212 9.598C92.9212 9.214 92.7832 8.908 92.5072 8.68C92.2312 8.44 91.8712 8.254 91.4272 8.122C90.9952 7.978 90.5092 7.846 89.9692 7.726C89.4412 7.606 88.9072 7.468 88.3672 7.312C87.8392 7.144 87.3532 6.934 86.9092 6.682C86.4772 6.418 86.1232 6.07 85.8472 5.638C85.5712 5.206 85.4332 4.654 85.4332 3.982C85.4332 3.298 85.6132 2.674 85.9732 2.11C86.3452 1.534 86.9032 1.078 87.6472 0.741999C88.4032 0.393999 89.3572 0.219999 90.5092 0.219999C91.2652 0.219999 92.0152 0.316 92.7592 0.508C93.5032 0.7 94.1512 0.976 94.7032 1.336L93.9652 3.154C93.4012 2.818 92.8192 2.572 92.2192 2.416C91.6192 2.248 91.0432 2.164 90.4912 2.164C89.8432 2.164 89.3152 2.242 88.9072 2.398C88.5112 2.554 88.2172 2.758 88.0252 3.01C87.8452 3.262 87.7552 3.55 87.7552 3.874C87.7552 4.258 87.8872 4.57 88.1512 4.81C88.4272 5.038 88.7812 5.218 89.2132 5.35C89.6572 5.482 90.1492 5.614 90.6892 5.746C91.2292 5.866 91.7632 6.004 92.2912 6.16C92.8312 6.316 93.3172 6.52 93.7492 6.772C94.1932 7.024 94.5472 7.366 94.8112 7.798C95.0872 8.23 95.2252 8.776 95.2252 9.436C95.2252 10.108 95.0392 10.732 94.6672 11.308C94.3072 11.872 93.7492 12.328 92.9932 12.676C92.2372 13.012 91.2832 13.18 90.1312 13.18ZM100.516 13L96.3395 0.399999H98.7695L102.496 11.794H101.29L105.16 0.399999H107.32L111.082 11.794H109.912L113.728 0.399999H115.96L111.784 13H109.3L105.862 2.722H106.51L103.018 13H100.516ZM115.68 13L121.35 0.399999H123.654L129.342 13H126.894L122.016 1.642H122.952L118.092 13H115.68ZM118.29 10.084L118.92 8.248H125.724L126.354 10.084H118.29ZM130.944 13V0.399999H136.128C137.244 0.399999 138.198 0.579999 138.99 0.94C139.794 1.3 140.412 1.816 140.844 2.488C141.276 3.16 141.492 3.958 141.492 4.882C141.492 5.806 141.276 6.604 140.844 7.276C140.412 7.948 139.794 8.464 138.99 8.824C138.198 9.184 137.244 9.364 136.128 9.364H132.24L133.284 8.266V13H130.944ZM133.284 8.518L132.24 7.384H136.02C137.052 7.384 137.826 7.168 138.342 6.736C138.87 6.292 139.134 5.674 139.134 4.882C139.134 4.078 138.87 3.46 138.342 3.028C137.826 2.596 137.052 2.38 136.02 2.38H132.24L133.284 1.228V8.518Z" fill="white"/>
</svg>
